<svg id="Layer_1" data-name="Layer 1" xmlns="http://www.w3.org/2000/svg" viewBox="0 0 428.68 77.07">
    <g id="Layer_1-2" data-name="Layer_1">
        <g id="_1606674061792" data-name=" 1606674061792">
            <polygon id="polygon16" points="73.34 0.01 81.9 0.01 81.9 59.95 73.34 59.95 73.34 0.01"
                fill="#3c3" />
            <path
                d="M94.75,38.54a12.84,12.84,0,1,0,21.91-9.07,12.84,12.84,0,0,0-21.91,9.07Zm34.25,0V55.67a21.41,21.41,0,0,1-21.41,21.4V68.51a12.87,12.87,0,0,0,12.84-12.8,21.48,21.48,0,0,1-28-2,20.65,20.65,0,0,1-6.27-15.14A20.68,20.68,0,0,1,92.45,23.4a21.44,21.44,0,0,1,30.28,0A20.68,20.68,0,0,1,129,38.54Z"
                transform="translate(0 0)" fill="#3c3" />
            <path id="path20"
                d="M154.68,17.14a20.68,20.68,0,0,1,15.14,6.26,20.68,20.68,0,0,1,6.27,15.14,20.65,20.65,0,0,1-6.27,15.14,21.4,21.4,0,0,1-30.27,0,20.63,20.63,0,0,1-6.27-15.14,20.68,20.68,0,0,1,6.27-15.14A20.64,20.64,0,0,1,154.68,17.14Zm0,8.56a12.87,12.87,0,0,0-12.84,12.84,12.85,12.85,0,1,0,21.92-9.07A12.36,12.36,0,0,0,154.68,25.7Z"
                transform="translate(0 0)" fill="#3c3" />
            <path id="path22"
                d="M278.15,34.26a12.77,12.77,0,0,0-3.08-4.79,12.81,12.81,0,0,0-18.15,0,12.77,12.77,0,0,0-3.08,4.79ZM275.54,47.1h10.15a21.38,21.38,0,0,1-4.54,6.55,21.39,21.39,0,0,1-30.29,0,20.65,20.65,0,0,1-6.27-15.14,20.68,20.68,0,0,1,6.27-15.14,21.4,21.4,0,0,1,30.27,0,20.68,20.68,0,0,1,6.27,15.14,22.86,22.86,0,0,1-.39,4.28H253.84a12.73,12.73,0,0,0,3.08,4.8,12.83,12.83,0,0,0,18.15,0c.18-.18.32-.34.47-.52Z"
                transform="translate(0 0)" fill="#1f63ed" />
            <path id="path24"
                d="M300.25,38.54V60h-8.57V38.54A20.68,20.68,0,0,1,298,23.4a21.44,21.44,0,0,1,30.28,0,20.68,20.68,0,0,1,6.27,15.14V60h-8.57V38.54a12.84,12.84,0,0,0-25.68,0Z"
                transform="translate(0 0)" fill="#1f63ed" />
            <path id="path26"
                d="M372.34,42.82h8.86a21.54,21.54,0,0,1-21,17.13,20.61,20.61,0,0,1-15.13-6.27,20.65,20.65,0,0,1-6.27-15.14,20.68,20.68,0,0,1,6.27-15.14,21.46,21.46,0,0,1,30.29,0,20.78,20.78,0,0,1,5.86,10.87h-8.86a12.77,12.77,0,0,0-3.08-4.79,12.85,12.85,0,0,0-21.92,9.07,12.84,12.84,0,0,0,21.92,9.08,12.73,12.73,0,0,0,3.08-4.8Z"
                transform="translate(0 0)" fill="#1f63ed" />
            <path id="path28"
                d="M419.43,34.26a12.65,12.65,0,0,0-3.08-4.79,12.81,12.81,0,0,0-18.15,0,12.77,12.77,0,0,0-3.08,4.79ZM416.82,47.1H427a21.38,21.38,0,0,1-4.54,6.55,21.39,21.39,0,0,1-30.29,0,20.65,20.65,0,0,1-6.27-15.14,20.68,20.68,0,0,1,6.27-15.14,21.41,21.41,0,0,1,30.28,0,20.71,20.71,0,0,1,6.26,15.14,22.86,22.86,0,0,1-.39,4.28H395.12a12.73,12.73,0,0,0,3.08,4.8,12.83,12.83,0,0,0,18.15,0c.18-.18.32-.34.47-.52Z"
                transform="translate(0 0)" fill="#1f63ed" />
            <path id="path30"
                d="M240.08,25.83l-17,0a13.37,13.37,0,1,0,0,8.4h8.42c-.13,1.9-1.68,5.27-2.48,6.63a21.55,21.55,0,0,1-31,6.79c-12.55-8.67-12.07-27.66.65-35.74a21.48,21.48,0,0,1,14.63-3.26,21,21,0,0,1,9.8,4,18.79,18.79,0,0,1,2.48,2.11c.54-.29,3.54-3.62,4.48-4.39a5.69,5.69,0,0,0,1.48-1.59c-2.75-2.34-4.25-3.79-7.8-5.55a30,30,0,0,0-42.15,18.46,30,30,0,1,0,58.46,4.24ZM210,25a5,5,0,1,0,5.36,4.47A4.92,4.92,0,0,0,210,25Z"
                transform="translate(0 0)" fill="#1f63ed" fill-rule="evenodd" />
            <polygon id="polygon32"
                points="69.15 59.94 16.19 59.94 26.75 41.77 34.15 46.07 31.07 51.37 54.82 51.38 34.85 17.03 9.91 59.92 0 59.93 34.85 0 69.15 59.94"
                fill="#3c3" fill-rule="evenodd" />
            <path id="path34"
                d="M34.28,29.39a8.49,8.49,0,1,1-8.48,8.48A8.48,8.48,0,0,1,34.28,29.39Z"
                transform="translate(0 0)" fill="#3c3" fill-rule="evenodd" />
        </g>
    </g>
</svg>