<?xml version="1.0" encoding="UTF-8"?>
<!DOCTYPE svg PUBLIC "-//W3C//DTD SVG 1.1//EN" "http://www.w3.org/Graphics/SVG/1.1/DTD/svg11.dtd">
<!-- Creator: CorelDRAW 2021 (64-Bit) -->
<svg xmlns="http://www.w3.org/2000/svg" xml:space="preserve" width="111.129mm" height="32.749mm" version="1.1" style="shape-rendering:geometricPrecision; text-rendering:geometricPrecision; image-rendering:optimizeQuality; fill-rule:evenodd; clip-rule:evenodd"
viewBox="0 0 2182.72 643.23"
 xmlns:xlink="http://www.w3.org/1999/xlink"
 xmlns:xodm="http://www.corel.com/coreldraw/odm/2003">
 <defs>

 </defs>
 <g id="Layer_x0020_1">
  <metadata id="CorelCorpID_0Corel-Layer"/>
  <g id="_1606479840832">
   <path fill="#009933" class="fil0" d="M606.7 1.99c-14.61,4.73 -28.26,14.9 -33.98,26.44 -7.98,16.11 -44.2,108.29 -52.07,128.04l-69.62 171.85c-9.72,22.92 -94.67,228.23 -100.8,260.83 -6.02,32.01 30.55,60.41 64.36,52.85 33.17,-7.42 38.03,-36.56 51.49,-68.64 11.92,-28.42 23.08,-56.58 34.85,-85.22l139.06 -343.9c8.08,-19.97 27.57,-69.24 31.56,-88.5 6.52,-31.51 -32.5,-64.21 -64.85,-53.75z"/>
   <path fill="#009933" class="fil0" d="M129.01 332.11c2.64,-5.18 126.44,-126.27 153.9,-156.55 9.01,-9.94 22.26,-19.26 24.95,-37.72 5.26,-36.02 -26.65,-67.66 -62.88,-60.35 -12.68,2.56 -24.88,15.53 -35.44,25.97 -5.36,5.29 -10.48,9.45 -16.06,14.62 -5.56,5.14 -10.35,10.82 -15.89,16.04l-78.49 77.39c-22.8,22.94 -57.61,56.43 -77.64,79.51 -9.76,11.24 -21.63,18.15 -21.45,41.11 0.19,24.68 16.95,37.23 35.06,56.9 5.28,5.74 10.66,10.49 15.86,16.06 31.29,33.52 122.02,124.57 156.57,155.19 11.61,10.29 20.78,22.76 36.64,26 39.3,8.04 65.37,-20.05 63.87,-57.47 -0.67,-16.85 -16.23,-30.41 -23.59,-39.09 -19.56,-23.07 -96.65,-98.32 -124.36,-126.04 -9.51,-9.51 -23.13,-21.62 -31.05,-31.55z"/>
   <path fill="#009933" class="fil0" d="M891.42 332.11c-3.35,5.27 -22.98,24.78 -29.53,31.51 -26.94,27.72 -67.32,70.08 -93.64,94.15l-45.22 48.05c-25.41,26.3 -1.19,90.82 53.79,80.79 17.6,-3.21 52.29,-42.1 67.51,-56.58l125.64 -124.77c5.29,-5.49 9.78,-10.02 15.05,-15.62 15.81,-16.85 36.88,-32.07 36.93,-57.53 0.04,-22.83 -11.03,-29.92 -20.64,-40.61 -22.2,-24.69 -68.9,-70.72 -92.96,-94.85 -22.04,-22.09 -84.18,-84.98 -110.68,-107.77 -5.75,-4.94 -10.47,-9.42 -20.71,-11.27 -48.53,-8.74 -80.88,46.75 -54.9,79.21 15.52,19.39 89.49,92.6 108.19,111.56 10.67,10.82 21.02,20.58 31.34,31.26 4.49,4.65 28.1,28.6 29.85,32.47z"/>
  </g>
  <path fill="white" class="fil1" d="M1031.5 643.23l246.74 -643.21 93.58 0 261.86 643.21 -96.87 0 -74.41 -194.94 -270.85 0 -69.77 194.94 -90.28 0zm185.06 -264.11l219.19 0 -67.07 -178.32c-20.21,-54.2 -35.48,-98.97 -46.12,-134.3 -8.83,41.92 -20.66,83.1 -35.48,123.82l-70.52 188.8zm486.45 264.11l0 -643.21 464.44 0 0 75.46 -379.1 0 0 197.63 354.84 0 0 75.46 -354.84 0 0 219.19 394.37 0 0 75.46 -479.71 0z"/>
 </g>
</svg>
